<svg width="230" height="81" viewBox="0 0 230 81" fill="none" xmlns="http://www.w3.org/2000/svg">
<g clip-path="url(#clip0_63_3306)">
<path d="M47.0421 58.2192C47.0421 61.8229 44.0344 64.7481 41.7695 64.7481H16.1582L48.3718 13.2871H5.30115V21.815H7.51107C7.51107 18.2113 9.84021 15.2953 12.1143 15.2953H34.2411L1.83496 66.7471H48.5643V58.2192H47.0421Z" fill="white"/>
<path d="M102.933 62.584L78.0093 13.2871L55.1673 62.6207C54.7638 63.7027 52.563 65.069 49.4453 65.069V66.7379H61.6045V65.069C59.3487 65.069 56.9279 63.9503 57.5147 62.6115L63.0075 50.6999H84.0797L90.0676 62.584C90.7461 63.7853 87.7109 65.0782 84.584 65.0782V66.7471H109.893L109.902 65.0782C106.069 65.069 103.731 63.877 102.933 62.584ZM63.9244 48.7743L73.0392 28.7658L83.2177 48.7743H63.9244Z" fill="white"/>
<path d="M112.798 15.3503C116.502 15.3503 119.565 16.304 119.565 17.4594C119.565 26.6292 119.547 62.529 119.565 62.529C119.565 63.7578 116.548 65.1241 112.835 65.1241L112.825 66.7379H137.602V65.2341C133.925 65.2341 130.945 63.7669 130.945 62.5382V14.901H138.088C144.966 14.901 150.541 20.6138 150.541 27.0968C150.541 33.5799 144.966 38.8434 138.079 38.8434H133.136C133.136 38.8434 149.881 64.1979 149.908 64.1979C150.568 65.1607 150.898 66.7471 150.898 66.7471H168.954V65.2433C165.478 65.2433 163.663 63.8036 162.654 62.5382L146.534 41.5026C154.273 40.9891 160.261 34.7353 160.261 27.3078C160.261 19.5501 153.594 13.2871 145.369 13.2871H112.798V15.3503Z" fill="white"/>
<path d="M224.121 62.584L199.198 13.2871L176.356 62.6207C175.952 63.7027 173.761 65.1241 170.634 65.1241V66.7379H182.793V65.2341C180.537 65.2341 178.126 63.9503 178.703 62.6115L184.196 50.6999H205.268L211.256 62.584C211.944 63.7853 208.899 65.1332 205.772 65.1332V66.7471H231.081L231.09 65.1882C227.257 65.1882 224.919 63.877 224.121 62.584ZM185.104 48.7743L194.219 28.7658L204.397 48.7743H185.104Z" fill="white"/>
</g>
<defs>
<clipPath id="clip0_63_3306">
<rect width="229.245" height="81" fill="white" transform="translate(0.376953)"/>
</clipPath>
</defs>
</svg>
